<svg width="16" height="16" viewBox="0 0 16 16" fill="none" xmlns="http://www.w3.org/2000/svg">
<g id="cancel-svgrepo-com (2) 1" clip-path="url(#clip0_503_555)">
<g id="SVGRepo_iconCarrier">
<g id="icons">
<g id="ui-gambling-website-lined-icnos-casinoshunter">
<g id="1">
<path id="cancel" d="M2.28442 0.390457L8 6.10618L13.7156 0.390457C14.1923 -0.086231 14.9476 -0.130626 15.5119 0.310216L15.6095 0.399146C16.1301 0.919755 16.1301 1.76383 15.6095 2.28444L9.89384 8L15.6095 13.7156C16.0862 14.1922 16.1306 14.9476 15.6898 15.5119L15.6009 15.6095C15.0803 16.1302 14.2361 16.1302 13.7155 15.6095L8 9.89382L2.28442 15.6095C1.80773 16.0862 1.05239 16.1306 0.488115 15.6898L0.390459 15.6009C-0.13015 15.0802 -0.130156 14.2362 0.390459 13.7156L6.10616 8L0.390459 2.28444C-0.0862292 1.80775 -0.130624 1.05239 0.310218 0.48811L0.399126 0.390457C0.919734 -0.130152 1.76381 -0.130152 2.28442 0.390457ZM1.35245 15.3332C1.3489 15.3333 1.34535 15.3333 1.34179 15.3333L1.35245 15.3332ZM1.44096 15.326L1.41174 15.3297C1.42142 15.3287 1.43121 15.3274 1.44096 15.326ZM1.24353 15.3261L1.25541 15.3277C1.25138 15.3272 1.24755 15.3267 1.24353 15.3261ZM1.15975 15.3081L1.17016 15.311C1.16657 15.31 1.16333 15.3091 1.15975 15.3081ZM1.52559 15.3076L1.48966 15.3168C1.50167 15.3141 1.51367 15.311 1.52559 15.3076ZM1.60103 15.281L1.57332 15.292C1.58255 15.2886 1.59181 15.2849 1.60103 15.281ZM1.08243 15.281C1.08402 15.2817 1.08572 15.2824 1.08243 15.281ZM1.00423 15.2417L0.933346 15.1936C0.96295 15.2166 0.994017 15.2368 1.02624 15.2541L1.00423 15.2417ZM1.67903 15.2419L1.65759 15.254C1.66463 15.2502 1.67185 15.2461 1.67903 15.2419ZM15.2541 14.9737L15.2417 14.9958L15.1936 15.0667C15.2166 15.0371 15.2368 15.006 15.2541 14.9737ZM15.291 14.8924L15.281 14.9176C15.2845 14.9092 15.2879 14.9008 15.291 14.8924ZM15.3165 14.8074L15.3081 14.8402C15.3111 14.8296 15.314 14.8185 15.3165 14.8074ZM15.3296 14.7286L15.3261 14.7565C15.3274 14.7473 15.3286 14.738 15.3296 14.7286ZM14.6582 1.3331L8 7.99149L1.34179 1.3331L1.33309 1.34179L7.99149 8L1.33309 14.6582L1.34179 14.6669L8 8.00851L14.6582 14.6669L14.6669 14.6582L8.0085 8L14.6669 1.34179L14.6582 1.3331ZM15.3332 14.6476L15.3333 14.6669C15.3334 14.6605 15.3334 14.654 15.3332 14.6476ZM15.326 14.5591L15.3297 14.5883C15.3287 14.5786 15.3274 14.5688 15.326 14.5591ZM15.3076 14.4744L15.3168 14.5103C15.3141 14.4983 15.311 14.4863 15.3076 14.4744ZM15.281 14.399L15.292 14.4267C15.2886 14.4175 15.2849 14.4082 15.281 14.399ZM15.2419 14.3209L15.2539 14.3424C15.2502 14.3354 15.2461 14.3281 15.2419 14.3209ZM0.74605 1.65758L0.7561 1.67561C0.752593 1.66956 0.74935 1.66372 0.74605 1.65758ZM0.708004 1.57331L0.716956 1.59627C0.713801 1.58862 0.710863 1.58104 0.708004 1.57331ZM0.683183 1.48968L0.689043 1.5134C0.686947 1.50551 0.684985 1.49763 0.683183 1.48968ZM0.67004 1.40908L0.672238 1.42819C0.671406 1.42179 0.670686 1.41549 0.67004 1.40908ZM0.666948 1.32245L0.666663 1.34179C0.666663 1.3353 0.666759 1.32893 0.666948 1.32245ZM0.673906 1.24351L0.672238 1.2554C0.672762 1.25137 0.673309 1.24754 0.673906 1.24351ZM0.691891 1.15977L0.689043 1.17018C0.689997 1.16659 0.690876 1.16335 0.691891 1.15977ZM0.718991 1.08244C0.71832 1.08403 0.717613 1.08572 0.718991 1.08244ZM0.758297 1.00424L0.806434 0.933334C0.783415 0.962938 0.763218 0.994038 0.745887 1.02626L0.758297 1.00424ZM1.6573 0.745895L1.67936 0.758287L1.75024 0.806421C1.72064 0.783403 1.68953 0.763226 1.6573 0.745895ZM14.3424 0.746037L14.3244 0.756108C14.3304 0.7526 14.3363 0.749338 14.3424 0.746037ZM1.026 0.746037L1.00797 0.756108C1.01403 0.7526 1.01986 0.749338 1.026 0.746037ZM14.9738 0.745895L14.9958 0.758287L15.0666 0.806421C15.037 0.783403 15.006 0.763226 14.9738 0.745895ZM1.10762 0.708991L1.08732 0.716977C1.09404 0.714204 1.10083 0.711535 1.10762 0.708991ZM1.5732 0.707956L1.60115 0.719011C1.59183 0.715081 1.58255 0.711411 1.5732 0.707956ZM14.4267 0.708L14.4037 0.716977C14.4114 0.713821 14.4189 0.710858 14.4267 0.708ZM14.8924 0.709004L14.9176 0.719011C14.9092 0.715471 14.9008 0.712151 14.8924 0.709004ZM1.19283 0.683435L1.17016 0.689028C1.17762 0.687048 1.18532 0.685152 1.19283 0.683435ZM1.48962 0.683181L1.52571 0.692415C1.5137 0.68898 1.50168 0.685913 1.48962 0.683181ZM14.5103 0.683191L14.4866 0.689028C14.4945 0.686931 14.5024 0.684993 14.5103 0.683191ZM14.8074 0.683481L14.8402 0.691881C14.8296 0.688859 14.8185 0.686026 14.8074 0.683481ZM1.27425 0.670074L1.25541 0.672256C1.26163 0.671447 1.26801 0.670707 1.27425 0.670074ZM1.40897 0.670041L1.44087 0.674034C1.43029 0.67245 1.41965 0.671117 1.40897 0.670041ZM14.5909 0.670051L14.5718 0.672256C14.5782 0.671424 14.5845 0.670697 14.5909 0.670051ZM14.7259 0.670092L14.7565 0.673909C14.7464 0.672418 14.7362 0.671135 14.7259 0.670092ZM14.6389 0.666943L14.6776 0.666948C14.6647 0.666573 14.6518 0.666571 14.6389 0.666943ZM1.32234 0.666948L1.36112 0.666943C1.3482 0.666571 1.33527 0.666573 1.32234 0.666948Z" fill="black"/>
</g>
</g>
</g>
</g>
</g>
<defs>
<clipPath id="clip0_503_555">
<rect width="16" height="16" fill="white"/>
</clipPath>
</defs>
</svg>
