<svg width="30" height="30" viewBox="0 0 30 30" fill="none" xmlns="http://www.w3.org/2000/svg">
<ellipse cx="15.0001" cy="15.0001" rx="15.0001" ry="15.0001" fill="#909D83"/>
<path d="M11.6384 12.375H18.5615M11.6384 14.875H15.1M7.59998 16.1333C7.59998 17.4667 8.46382 18.6283 9.68228 18.8225C10.5507 18.9608 11.4284 19.0667 12.3154 19.1383C12.5846 19.16 12.8307 19.3133 12.9807 19.5558L15.1 23L17.2192 19.5558C17.2936 19.4361 17.3921 19.3362 17.5074 19.2639C17.6227 19.1915 17.7517 19.1486 17.8846 19.1383C18.7655 19.0671 19.6437 18.9617 20.5177 18.8225C21.7361 18.6283 22.6 17.4675 22.6 16.1325V11.1175C22.6 9.7825 21.7361 8.62167 20.5177 8.4275C18.7238 8.14226 16.9131 7.99938 15.1 8C13.26 8 11.4507 8.14584 9.68228 8.4275C8.46382 8.62167 7.59998 9.78334 7.59998 11.1175V16.1333Z" stroke="white" stroke-width="1.5" stroke-linecap="round" stroke-linejoin="round"/>
</svg>
