<svg width="25" height="24" viewBox="0 0 25 24" fill="none" xmlns="http://www.w3.org/2000/svg">
<path fill-rule="evenodd" clip-rule="evenodd" d="M11.464 5.505C11.464 4.5375 10.5935 3.75 9.52093 3.75C8.44836 3.75 7.57788 4.5375 7.57788 5.505C7.57788 6.474 8.44836 7.26 9.52093 7.26C10.5935 7.26 11.464 6.474 11.464 5.505ZM11.464 18.495C11.464 17.526 10.5935 16.74 9.52093 16.74C8.44836 16.74 7.57788 17.526 7.57788 18.495C7.57788 19.4625 8.44836 20.25 9.52093 20.25C10.5935 20.25 11.464 19.4625 11.464 18.495ZM9.52093 10.245C10.5935 10.245 11.464 11.0325 11.464 12C11.464 12.9675 10.5935 13.755 9.52093 13.755C8.44836 13.755 7.57788 12.9675 7.57788 12C7.57788 11.0325 8.44836 10.245 9.52093 10.245ZM17.2931 5.505C17.2931 4.5375 16.4226 3.75 15.3501 3.75C14.2775 3.75 13.407 4.5375 13.407 5.505C13.407 6.474 14.2775 7.26 15.3501 7.26C16.4226 7.26 17.2931 6.474 17.2931 5.505ZM15.3501 16.74C16.4226 16.74 17.2931 17.526 17.2931 18.495C17.2931 19.4625 16.4226 20.25 15.3501 20.25C14.2775 20.25 13.407 19.4625 13.407 18.495C13.407 17.526 14.2775 16.74 15.3501 16.74ZM17.2931 12C17.2931 11.0325 16.4226 10.245 15.3501 10.245C14.2775 10.245 13.407 11.0325 13.407 12C13.407 12.9675 14.2775 13.755 15.3501 13.755C16.4226 13.755 17.2931 12.9675 17.2931 12Z" fill="#5C5C5C"/>
</svg>
