<svg width="30" height="30" viewBox="0 0 30 30" fill="none" xmlns="http://www.w3.org/2000/svg">
<rect width="30" height="30" rx="3" fill="black"/>
<path d="M23.1447 5.86732C21.988 4.71098 20.1182 4.71098 18.9615 5.86732L17.3717 7.45135L22.5425 12.6206L24.1324 11.0313C25.2891 9.87491 25.2891 8.00576 24.1324 6.84942L23.1447 5.86732ZM7.34169 17.4835C7.01951 17.8056 6.77127 18.2016 6.62866 18.6399L5.06526 23.3286C4.91209 23.7827 5.03357 24.2843 5.3716 24.6275C5.70964 24.9707 6.2114 25.0869 6.67091 24.9338L11.3611 23.3708C11.7942 23.223 12.1903 22.9801 12.5178 22.658L21.3542 13.8191L16.178 8.64465L7.34169 17.4835Z" fill="white"/>
</svg>
