<svg width="10" height="10" viewBox="0 0 10 10" fill="none" xmlns="http://www.w3.org/2000/svg">
<path d="M9.07239 0.433628C8.49404 -0.144543 7.55918 -0.144543 6.98082 0.433628L6.18592 1.22564L8.77134 3.81025L9.56624 3.0156C10.1446 2.43743 10.1446 1.50285 9.56624 0.924677L9.07239 0.433628ZM1.17091 6.24174C1.00981 6.40278 0.885694 6.60078 0.81439 6.81991L0.0326927 9.16427C-0.0438926 9.39132 0.0168476 9.64212 0.185863 9.81372C0.354879 9.98533 0.605762 10.0434 0.835517 9.96685L3.18061 9.18539C3.39716 9.11147 3.59523 8.99003 3.75896 8.82899L8.17714 4.40954L5.58909 1.8223L1.17091 6.24174Z" fill="black"/>
</svg>
