<svg width="40" height="40" viewBox="0 0 40 40" fill="none" xmlns="http://www.w3.org/2000/svg">
<g id="pin-svgrepo-com (1) 1" clip-path="url(#clip0_384_608)">
<g id="SVGRepo_iconCarrier">
<path id="Vector" d="M5 15C5 12.28 5.66666 9.77336 7 7.48002C8.33333 5.18669 10.16 3.37336 12.48 2.04002C14.8 0.706689 17.3067 0.026689 20 2.22951e-05C22.6933 -0.0266444 25.2 0.653356 27.52 2.04002C29.84 3.42669 31.6667 5.24002 33 7.48002C34.3333 9.72002 35 12.2267 35 15C35 16.1467 34.72 17.48 34.16 19C33.6 20.52 32.8933 22.0534 32.04 23.6C31.1867 25.1467 30.2133 26.72 29.12 28.32C28.0267 29.92 26.96 31.4134 25.92 32.8C24.88 34.1867 23.9067 35.4134 23 36.48C22.0933 37.5467 21.3733 38.4134 20.84 39.08L20 40C19.7867 39.7867 19.5067 39.4667 19.16 39.04C18.8133 38.6134 18.1067 37.7734 17.04 36.52C15.9733 35.2667 14.9867 34.0134 14.08 32.76C13.1733 31.5067 12.12 30.04 10.92 28.36C9.72 26.68 8.73333 25.08 7.96 23.56C7.18666 22.04 6.48 20.5334 5.84 19.04C5.2 17.5467 4.92 16.2 5 15ZM10 15C10 17.7734 10.9733 20.1334 12.92 22.08C14.8667 24.0267 17.2267 25 20 25C22.7733 25 25.1333 24.0267 27.08 22.08C29.0267 20.1334 30 17.7734 30 15C30 12.2267 29.0267 9.88002 27.08 7.96002C25.1333 6.04002 22.7733 5.05336 20 5.00002C17.2267 4.94669 14.8667 5.93336 12.92 7.96002C10.9733 9.98669 10 12.3334 10 15Z" fill="#1B3CDE" stroke="#1B3CDE" stroke-width="2"/>
</g>
</g>
<defs>
<clipPath id="clip0_384_608">
<rect width="40" height="40" fill="white"/>
</clipPath>
</defs>
</svg>
