<svg width="77" height="40" viewBox="0 0 77 40" fill="none" xmlns="http://www.w3.org/2000/svg">
<g clip-path="url(#clip0_94_2392)">
<path d="M27.936 18.77V23.726H26.9V19.75H25.122V18.77H27.936ZM27.936 23.264C28.608 24.314 29.882 24.776 31.562 24.846C33.102 24.902 36.266 24.86 37.932 24.748C37.806 25 37.638 25.504 37.582 25.826C36.042 25.882 33.116 25.91 31.562 25.854C29.686 25.784 28.384 25.294 27.474 24.188C26.844 24.79 26.186 25.392 25.472 26.008L24.912 24.944C25.542 24.482 26.312 23.866 26.984 23.264H27.936ZM25.248 14.192L26.018 13.576C26.9 14.206 27.894 15.158 28.342 15.844L27.502 16.516C27.096 15.83 26.116 14.85 25.248 14.192ZM30.316 13.954H37.372V14.934H30.316V13.954ZM30.414 16.88H36.14V17.832H30.414V16.88ZM29.812 13.954H30.834V17.188C30.834 19.148 30.61 21.906 29.168 23.782C29 23.586 28.552 23.292 28.314 23.18C29.672 21.43 29.812 18.994 29.812 17.188V13.954ZM35.86 16.88H36.056L36.252 16.838L36.91 17.076C36.014 20.814 33.634 23.04 30.862 24.118C30.736 23.866 30.456 23.446 30.246 23.236C32.794 22.382 35.076 20.226 35.86 17.062V16.88ZM32.038 17.51C32.948 20.38 34.894 22.494 37.876 23.334C37.638 23.544 37.344 23.95 37.19 24.244C34.11 23.222 32.136 20.968 31.114 17.748L32.038 17.51ZM43.786 18V21.22H47.188V18H43.786ZM42.792 17.062H48.238V22.144H42.792V17.062ZM39.698 13.814H51.402V26.106H50.282V14.878H40.776V26.106H39.698V13.814ZM40.3 24.37H50.926V25.364H40.3V24.37Z" fill="#3D4A35"/>
</g>
<rect x="0.5" y="0.5" width="76" height="39" rx="19.5" stroke="#79747E"/>
<defs>
<clipPath id="clip0_94_2392">
<rect width="77" height="40" rx="20" fill="white"/>
</clipPath>
</defs>
</svg>
